<svg height="220" width="230" xmlns="http://www.w3.org/2000/svg">
    <title>background</title>
    <path d="M-1-1h582v402H-1z" fill="none" />
    <g>
        <title>Layer 1</title>
        <path
            d="M167.609141 26.423498c-8.82 1.71-15.67-5.99-14.89-14.43.63-6.77 4.82-9.71 10.89-11.43 17.64-1.46 20.2 22.71 4 25.86zm-87.02 10.97c-8.51 3.15-16.19-8.7-5.94-14.66 12.37-2.72 13.85 11.73 5.94 14.66zm17.05.27c-5.4-1.17-7.81-9.47 0-12.98 12.34-1.28 9.62 15.07 0 12.98zm-41.07 5.32c-10.57 4.48-19.36-10.57-6.96-17.25 13.46-2.92 16.88 13.05 6.96 17.25zm61.98-1.61c-5.65 2.03-11.57-5.86-3.83-10.6 9.24-1.32 9.53 8.56 3.83 10.6zm52.06-3.9c15.2 2.08 10.89 24.13-3 21.9-10.69-1.73-13.99-16.74-1-21.9 1.7-.13 2.18-.36 4 0zm-38.15 10.45c-4.11 2.17-9.54-2.53-4.54-7.9 7.96-2.75 8.99 5.57 4.54 7.9zm68.15 15.5c-12.74 2.49-19.45-17.11-4-21.86 15.96-1.34 16.87 19.35 4 21.86zm-116.04-1.17c-8.57 3.36-16.11-8.59-5.92-14.52 12.31-2.71 13.76 11.44 5.92 14.52zm56.91-5.92c-3.81 1.33-8.18-3.77-2.65-7.5 7.12-.51 6.28 6.24 2.65 7.5zm-36.89 6.19c-7.3 1.6-11.46-8.02-3.87-12.78 11.05-2.16 11.89 11.02 3.87 12.78zm-42.19-10.79c6.18 4.53 4.53 14.34-2.81 16.61-10.84 3.35-17.63-12.35-5.94-17.7 3.17-.64 5.92-.98 8.75 1.09zm60.15 14.64c-5.65 2.03-11.57-5.86-3.83-10.6 9.24-1.32 9.53 8.56 3.83 10.6zm-86.15-3.87c6.28 5.22 4.99 15.74-2.79 18.75-13.28 5.13-22.53-14.22-7.99-20.61 3.9-.78 7.51-.86 10.78 1.86zm100.06 10.42c-4.11 2.17-9.54-2.53-4.54-7.9 7.96-2.75 8.99 5.57 4.54 7.9zm30.15 14.36c-10.41 1.22-15.96-15-2-18.58 13.95.28 12.87 17.3 2 18.58zm29 4.19c-11.01.74-14.89-16.36-1-18.7 13.82 1.05 11.93 17.97 1 18.7zm-101.02-1.17c-5.42 1.41-10.64-4.02-9.51-9.31.73-3.42 2.72-4.71 5.55-6.22 11.89-1.74 12.94 13.2 3.96 15.53zm-23.98 5.57c-11.13 3.33-18.03-12.8-5-18.19 13.09-1.61 15.89 14.94 5 18.19zm46.87-6.21c-6.37 3.34-14.03-5.18-6.72-11.65 10.96-3.79 13.15 8.28 6.72 11.65zm102.13 10.9c-10.61 1.25-16.1-15.25-2-18.86 14.13.29 12.87 17.57 2 18.86zm-83.74-15.83c2.82 2.81 1.56 8.26-2.32 9.42-4.29 1.27-10.95-4.33-4.71-10.13 2.46-.84 4.89-1.43 7.03.71zm-94.26 24.89c-12.2 1.5-18.4-17.6-3-22.01 16.74-.85 16.6 20.33 3 22.01zm120.58-13.89c4.61 3.81 2.82 11.51-2.6 13.51-7.97 2.93-16.19-8.54-5.94-14.51 2.98-.7 5.95-1.15 8.54 1zm28.31 17.08c-7.98 4.45-17.4-6.33-7.83-13.8 11.91-3.96 15.21 9.7 7.83 13.8zm-94.04 2.99c-4.75 2.58-12.07-3.78-5.62-9.78 9.48-3.22 10.65 7.05 5.62 9.78zm-85.85 16.08c-12.69-1.09-17.3-18.81-2-25.24 20.54-4.05 22.62 27.02 2 25.24zm204.58-23.15c4.8 3.95 2.94 11.4-2.6 13.52-8.48 3.24-15.89-8.72-5.94-14.52 2.98-.71 5.94-1.15 8.54 1zm-138.62 14.55c-4.71 1.38-9-5.84-1.91-9.21 7.86.41 6.33 7.93 1.91 9.21zm70.02 3.24c-6.98 1.54-11.63-8.09-3.92-12.79 11.36-2.41 11.99 11.01 3.92 12.79zm-86.29-1.61c-3.04 1.74-7.91-2.05-3.38-6.84 6.42-1.42 6.22 5.22 3.38 6.84zm117.25 5.04c-5.7 2.93-14.66-5.09-5.88-11.93 10.6-3.37 12.43 8.57 5.88 11.93zm-74.37-6.22c3.35 2.85 2.68 8.77-1.68 10.91-6.38 3.13-14.06-5.14-6.74-11.63 2.89-1 5.82-1.5 8.42.72zm96.41 15.79c-7.04 1.55-11.47-8.02-3.87-12.78 11.05-2.16 11.89 11.01 3.87 12.78zm-66.03-1.37c-4.69 1.38-10.24-4.6-4.67-10.14 10.24-3.68 11.23 8.2 4.67 10.14zm-56.01 1.22c-5.65 2.03-11.57-5.86-3.83-10.6 9.24-1.32 9.53 8.56 3.83 10.6zm-20.08-.22c-4.6 1.48-10.37-5.31-2.81-9.2 7.47.29 6.73 7.93 2.81 9.2zm106.91 2.51c-5.44 3.04-12.33-3.7-5.62-9.64 8.99-2.88 10.78 6.76 5.62 9.64zm-51.05.07c5.4 4.2 2.59 12.44-3.72 13.79-7.22 1.54-14.42-8.9-4.9-14.79 3.04-.74 5.93-1.1 8.62 1zm37.05 7.19c-3.65 1.99-10.45-2.29-4.54-7.9 8.3-2.76 8.72 5.64 4.54 7.9zm38.63-7.33c2.39 2.39 1.9 8.26-2.46 9.56-4.65 1.38-10.25-4.58-4.66-10.14 2.41-.87 5-1.54 7.12.58zm-131.45 13.93c-5.37 1.24-10.51-4.88-3.82-10.49 8.95-2.45 10.84 8.86 3.82 10.49zm24.03 3c-6.99 1.54-11.62-8.13-3.92-12.78 11.19-2.14 11.88 11.02 3.92 12.78zm92.59-.72c-3.75 2.37-10.24-2.34-5.26-7.78 8.12-2.78 8.89 5.48 5.26 7.78zm-13.71 3.53c-3.41 1.17-8.21-2.55-2.73-7.21 6.79-1.2 6.48 5.93 2.73 7.21zm-29.29-.91c3.82 3.82 3.41 13.1-3.59 15.67-9.34 3.42-19.12-10.56-6.96-17.36 3.65-.88 7.62-1.24 10.55 1.69zm-68.61 13.79c-6.36 2.17-13.31-7.13-4.85-12.48 10.87-2.35 12.25 9.95 4.85 12.48zm29.02 4.54c-9.1 1.41-13.91-9.19-4.88-14.9 12.83-3.33 14.87 13.35 4.88 14.9zm63.81-2.33c6.11 5.27 4.97 15.79-2.81 18.83-13.4 5.25-22.02-14.43-7.97-20.61 3.96-.81 7.48-1.07 10.78 1.78zm-81.83 17.83c-8.93 3.57-16.18-8.75-5.94-14.52 12.32-2.68 13.79 11.38 5.94 14.52zm38.81-10.83c5.86 5.2 3.07 15.14-4.77 16.33-10.15 1.54-15.66-12.05-4.98-18.02 3.67-.86 6.7-1.02 9.75 1.69zm77.67 6.91c6.15 6.72 3.49 18.52-5.44 21.09-17.22 4.95-24.71-19.24-7-24.9 4.85-.69 8.96-.01 12.44 3.81zm-96.86 9.31c4.75 4.34 3.78 13.42-3.6 15.7-10.57 3.26-18.26-12.08-5.94-17.7 3.58-.66 6.65-.65 9.54 2zm39.42 19.69c-7.22 2.08-14.74-5.06-13.62-12.34.77-5.01 4.19-7.7 8.62-9.42 15.52-2.09 18.3 17.92 5 21.76z"
            stroke="#000" />
    </g>
</svg>